{"title":"Basic Instinct (1992) Unrated 720p BDRip HEVC x265 [Dual-Audio][","uid":12052416,"size":1236790393,"categoryP":"video","categoryS":"movies","magnet":"?xt=urn:btih:9688ee4e277ddd96d7145ac75ec93e1bf6ac963d&amp;dn=Basic+Instinct+%281992%29+Unrated+720p+BDRip+HEVC+x265+%5BDual-Audio%5D%5B&amp;tr=udp%3A%2F%2Ftracker.openbittorrent.com%3A80&amp;tr=udp%3A%2F%2Fopen.demonii.com%3A1337&amp;tr=udp%3A%2F%2Ftracker.coppersurfer.tk%3A6969&amp;tr=udp%3A%2F%2Fexodus.desync.com%3A6969","seeders":2,"leechers":5,"uploader":"praneet_gupta777","files":3,"time":1435042398,"description":"[center]\n[b][size=7]Basic Instinct (1992) Unrated 720p BDRip HEVC x265 [Dual-Audio][English 5.1+Hindi 5.1] [PKG][/size][/b]\n\n\n\n\n\n[img]http://s20.postimg.org/n40b0slml/Basic_Instinct_1992_French_Front_Cover_40035.jpg[/img]\n\n\n[img]http://s20.postimg.org/k8n7txhml/Untitled.png[/img]\n\n\n\n\n[img]http://img9.uploadhouse.com/fileuploads/15981/15981250a2a3770f9f004bcdf00afac92833ebdb.png[/img]\n\n\n[quote]\n\n\nGeneral\nUnique ID                   : 176316820654443403952665062445937137471 (0x84A5626BF458D117B816C9D49849173F)\nComplete name               : G:Basic Instinct (1992) Unrated 720p BDRip HEVC x265 [Dual-Audio][English 5.1+Hindi 5.1] [PKG]Basic Instinct (1992) Unrated 720p BDRip HEVC x265 [Dual-Audio][English 5.1+Hindi 5.1] [PKG].mkv\nFormat                      : Matroska\nFormat version              : Version 2\nFile size                   : 1.15 GiB\nDuration                    : 2h 3mn\nOverall bit rate            : 1 336 Kbps\nEncoded date                : UTC 2015-05-08 15:23:28\nWriting application         : mkvmerge v7.7.0 ('Six Voices') 32bit built on Feb 28 2015 23:23:00\nDURATION                    : 02:03:00.224000000\nNUMBER_OF_FRAMES            : 230632\nNUMBER_OF_BYTES             : 118083584\n\nVideo\nID                          : 1\nFormat                      : HEVC\nFormat/Info                 : High Efficiency Video Coding\nCodec ID                    : V_MPEGH/ISO/HEVC\nDuration                    : 2h 3mn\nBit rate                    : 1 053 Kbps\nWidth                       : 1 280 pixels\nHeight                      : 544 pixels\nDisplay aspect ratio        : 2.35:1\nFrame rate mode             : Constant\nFrame rate                  : 25.000 fps\nBits/(Pixel*Frame)          : 0.061\nStream size                 : 927 MiB (79%)\nDefault                     : Yes\nForced                      : No\n\nAudio #1\nID                          : 2\nFormat                      : AC-3\nFormat/Info                 : Audio Coding 3\nMode extension              : CM (complete main)\nFormat settings, Endianness : Big\nCodec ID                    : A_AC3\nDuration                    : 2h 3mn\nBit rate mode               : Constant\nBit rate                    : 128 Kbps\nChannel(s)                  : 6 channels\nChannel positions           : Front: L C R, Side: L R, LFE\nSampling rate               : 48.0 KHz\nBit depth                   : 16 bits\nCompression mode            : Lossy\nStream size                 : 113 MiB (10%)\nLanguage                    : Hindi\nDefault                     : Yes\nForced                      : No\n\nAudio #2\nID                          : 3\nFormat                      : AC-3\nFormat/Info                 : Audio Coding 3\nMode extension              : CM (complete main)\nFormat settings, Endianness : Big\nCodec ID                    : A_AC3\nDuration                    : 2h 3mn\nBit rate mode               : Constant\nBit rate                    : 128 Kbps\nChannel(s)                  : 6 channels\nChannel positions           : Front: L C R, Side: L R, LFE\nSampling rate               : 48.0 KHz\nBit depth                   : 16 bits\nCompression mode            : Lossy\nStream size                 : 113 MiB (10%)\nLanguage                    : English\nDefault                     : No\nForced                      : No\n\n\n[color=navy][size=6][b]SAMPLE WITHIN TORRENT[/b][/size][/color]\n\n\n\n\n\n[img]http://icons.iconarchive.com/icons/tribalmarkings/colorflow/256/screenshots-icon.png[/img]\n\n[img]http://s20.postimg.org/ws95q6r25/vlcsnap_2015_05_26_13h21m11s156.png[/img]\n\n\n[img]http://s20.postimg.org/euju8n2il/vlcsnap_2015_05_26_13h23m22s182.png[/img]\n\n\n[img]http://s20.postimg.org/57gbyx9j1/vlcsnap_2015_05_26_13h26m59s48.png[/img]\n\n\n[img]http://s20.postimg.org/mjgokd30d/vlcsnap_2015_05_26_13h29m30s19.png[/img]\n\n\n[img]http://s20.postimg.org/3w8kqgdx9/vlcsnap_2015_05_26_13h32m44s169.png[/img]\n\n\n[img]http://s20.postimg.org/g8bh3y1rx/Basic_Instinct_1992_Unrated_720p_BDRip_HEVC_x2.jpg[/img]\n\n[b]Use a reputed media player that can play H.265 (HEVC : High Efficiency Video Coding) Video support.\nMedia Player Classic - Home Cinema and MPC-BE are recommended!.. VLC is OKay, but MPC variants are preferred.\nVLC and players like latest GOM, KMP/PotP with LAV can play HEVC.\n\nAnd also use latest K-Lite Codec Pack.\n\nIn Mobile, Android, Tabs, use a media player like VLC Player, MX Player... that can play H.265 :]\nFor more info, read the How_to_Play_ file inside the torrent.\n\n\nBe aware that all HEVC rips will not play on any stand-alone device. You can only watch this on a computer or on devices which have HEVC support.\nBe sure that you have the latest versions of VLC or Media Player Classic or SMPlayer. Earlier versions may not work[/b]\n\n\n\n[/center]","torrent":{"xt":"urn:btih:9688ee4e277ddd96d7145ac75ec93e1bf6ac963d","amp;dn":"Basic+Instinct+%281992%29+Unrated+720p+BDRip+HEVC+x265+%5BDual-Audio%5D%5B","amp;tr":["udp%3A%2F%2Ftracker.openbittorrent.com%3A80","udp%3A%2F%2Fopen.demonii.com%3A1337","udp%3A%2F%2Ftracker.coppersurfer.tk%3A6969","udp%3A%2F%2Fexodus.desync.com%3A6969"],"infoHash":"9688ee4e277ddd96d7145ac75ec93e1bf6ac963d","infoHashBuffer":{"type":"Buffer","data":[150,136,238,78,39,125,221,150,215,20,90,199,94,201,62,27,246,172,150,61]},"announce":[],"urlList":[]}}